<svg width="172" height="38" viewBox="0 0 172 38" fill="none" xmlns="http://www.w3.org/2000/svg">
<path d="M15.4263 16.7303C12.7259 16.7691 10.0345 16.406 7.43823 15.6521C5.40138 15.102 3.52183 14.0712 1.95264 12.644C1.34079 12.1191 0.849127 11.4653 0.511874 10.7281C0.174621 9.99076 0 9.18778 0 8.37511C0 7.56222 0.174621 6.75925 0.511874 6.02208C0.849127 5.28491 1.34079 4.6309 1.95264 4.10625C3.52405 2.67721 5.40671 1.64639 7.44667 1.09808C10.0385 0.334318 12.7276 -0.0348276 15.4263 0.002583C20.1174 0.002583 23.7115 0.561937 26.2084 1.68042V5.40165H25.0258C24.3458 4.54955 23.0716 3.91492 21.2032 3.49754C19.3058 3.07431 17.3688 2.86156 15.4263 2.86291C12.7714 2.7633 10.13 3.29314 7.71238 4.41049C5.72397 5.43636 4.72976 6.75497 4.72976 8.36632C4.72976 10.0097 5.68975 11.3398 7.59241 12.3571C9.49507 13.3742 12.1264 13.8785 15.4692 13.8785C16.7069 13.8722 17.9424 13.7645 19.1632 13.5569C20.2072 13.4156 21.2225 13.1073 22.1716 12.644V9.58352H11.0294V7.04478H26.2513L26.6885 15.1304C23.0498 16.3023 19.2423 16.8432 15.4263 16.7303Z" fill="white"/>
<path d="M55.0389 14.3891C52.3304 15.9482 48.8564 16.7277 44.6167 16.7277C40.3768 16.7277 36.8999 15.9482 34.1859 14.3891C31.4774 12.8242 30.123 10.8157 30.123 8.36397C30.123 5.91222 31.4774 3.9067 34.1859 2.3474C36.8999 0.782465 40.3768 0 44.6167 0C48.8564 0 52.3304 0.782465 55.0389 2.3474C57.7587 3.91256 59.1159 5.91786 59.1101 8.36397C59.1044 10.8099 57.7474 12.8183 55.0389 14.3891ZM44.1624 13.8762C46.7215 13.976 49.2663 13.4419 51.5762 12.3198C53.4846 11.2822 54.4417 9.93769 54.4475 8.28576C54.4277 7.46025 54.1824 6.65683 53.739 5.96451C53.2957 5.27219 52.6715 4.71847 51.9363 4.36464C49.8204 3.26171 47.4556 2.74292 45.0795 2.86056C42.5296 2.7632 39.9945 3.29416 37.6912 4.40814C35.7828 5.434 34.8257 6.77582 34.8199 8.43338C34.8326 9.2616 35.0728 10.0698 35.5133 10.767C35.9539 11.4645 36.5775 12.0232 37.3142 12.3806C39.4275 13.4813 41.7898 13.9972 44.1624 13.8762Z" fill="white"/>
<path d="M67.7937 13.2175H85.6727V16.078H63.4482V0.663086H67.7937V13.2175Z" fill="white"/>
<path d="M89.252 16.0774V0.662409H100.3C102.767 0.623647 105.228 0.933977 107.611 1.58393C109.465 2.05517 111.179 2.97398 112.608 4.26194C113.174 4.78118 113.627 5.4149 113.936 6.12255C114.246 6.8302 114.406 7.59576 114.406 8.36989C114.406 9.14402 114.246 9.90958 113.936 10.6172C113.627 11.3249 113.174 11.9586 112.608 12.4778C111.179 13.7658 109.465 14.6844 107.611 15.1556C105.227 15.8011 102.767 16.1112 100.3 16.0774H89.252ZM94.8317 13.2168H99.863C102.329 13.3324 104.79 12.9085 107.08 11.9737C108.794 11.1042 109.651 9.9391 109.745 8.36561C109.814 6.93972 109.085 5.75724 107.56 4.88778C106.034 4.01832 103.806 3.54032 100.866 3.54032H93.4861V11.9041C93.4656 12.0862 93.4867 12.2705 93.5478 12.4429C93.6089 12.6153 93.7084 12.7713 93.8386 12.8981C93.9688 13.0253 94.1263 13.1201 94.2985 13.1753C94.4707 13.2306 94.6531 13.2448 94.8317 13.2168Z" fill="white"/>
<path d="M118.736 16.078V0.663086H141.183V3.53221H122.978V6.83606H138.14V9.4442H122.978V13.1828H141.183V16.0431L118.736 16.078Z" fill="white"/>
<path d="M145.414 16.078V0.663086H150.162L167.768 12.1831V0.663086H172V16.078H167.33L149.648 4.94074V16.078H145.414Z" fill="white"/>
<path d="M46.5126 25.5693V27.2388C45.4886 26.7073 44.3622 26.4105 43.2129 26.3693C42.6593 26.3531 42.109 26.4635 41.6031 26.6922C41.0972 26.921 40.6484 27.2622 40.2901 27.6908C39.5016 28.6245 39.091 29.8268 39.1417 31.0555C39.1188 31.6775 39.2217 32.298 39.4443 32.8781C39.6669 33.4584 40.0044 33.986 40.4358 34.4288C40.8677 34.8653 41.3836 35.2072 41.9512 35.433C42.5189 35.6588 43.1263 35.7639 43.7357 35.7415C44.1234 35.7341 44.51 35.6992 44.8928 35.6372V32.5682H42.7415V31.2293H46.6154V36.6198C45.5104 36.9968 44.3531 37.1934 43.1872 37.2021C42.3911 37.235 41.5971 37.1032 40.8528 36.8147C40.1088 36.5263 39.4303 36.0873 38.8589 35.5243C38.3032 34.9537 37.8689 34.2735 37.5827 33.5258C37.2968 32.778 37.1653 31.9786 37.1961 31.1772C37.1641 30.3598 37.2948 29.5445 37.5805 28.7796C37.8662 28.0149 38.301 27.3163 38.8589 26.7256C39.4289 26.1572 40.1081 25.7135 40.8539 25.4219C41.6 25.1305 42.3969 24.997 43.1956 25.0304C44.3216 25.0437 45.4391 25.2253 46.5126 25.5693Z" fill="white"/>
<path d="M60.1978 36.937V25.3217H63.3945C64.3321 25.268 65.2717 25.3798 66.1717 25.652C66.6744 25.826 67.1083 26.1607 67.408 26.606C67.7078 27.0511 67.8573 27.5825 67.8344 28.1211C67.8575 28.838 67.6564 29.5441 67.2601 30.1382C66.7424 30.7881 66.0819 31.3062 65.3316 31.651L69.2829 36.937H67.183L63.5661 32.1031H61.9547V36.937H60.1978ZM61.9547 30.7642H62.8976C63.694 30.8052 64.4823 30.5826 65.143 30.1294C65.4172 29.9346 65.6389 29.6737 65.7887 29.3701C65.9382 29.0665 66.011 28.7298 66.0002 28.3907C66.0315 28.1254 65.9895 27.8566 65.8791 27.6138C65.7687 27.3713 65.5938 27.1647 65.3745 27.0168C64.6496 26.7072 63.8615 26.579 63.0775 26.6432H61.9547V30.7642Z" fill="white"/>
<path d="M81.0865 31.1215C81.0038 29.5327 81.4773 27.9653 82.4235 26.6962C82.8769 26.1772 83.4339 25.7619 84.0573 25.4775C84.681 25.1931 85.3568 25.0459 86.0404 25.0459C86.724 25.0459 87.3999 25.1931 88.0235 25.4775C88.6469 25.7619 89.2039 26.1772 89.6573 26.6962C90.5285 28.0061 90.9939 29.5503 90.9939 31.1303C90.9939 32.7103 90.5285 34.2543 89.6573 35.5644C89.2039 36.0831 88.6469 36.4985 88.0235 36.7831C87.3999 37.0675 86.724 37.2147 86.0404 37.2147C85.3568 37.2147 84.681 37.0675 84.0573 36.7831C83.4339 36.4985 82.8769 36.0831 82.4235 35.5644C81.4768 34.2888 81.0034 32.716 81.0865 31.1215ZM82.9549 31.1215C82.8918 32.334 83.1682 33.5395 83.7521 34.5993C84.0036 34.9795 84.3435 35.291 84.7418 35.5062C85.1402 35.7217 85.5847 35.8343 86.0362 35.8343C86.4876 35.8343 86.932 35.7217 87.3303 35.5062C87.7287 35.291 88.0686 34.9795 88.3203 34.5993C88.8504 33.5066 89.1261 32.3047 89.1261 31.0868C89.1261 29.8689 88.8504 28.6671 88.3203 27.5743C88.0686 27.1941 87.7287 26.8826 87.3303 26.6672C86.932 26.452 86.4876 26.3393 86.0362 26.3393C85.5847 26.3393 85.1402 26.452 84.7418 26.6672C84.3435 26.8826 84.0036 27.1941 83.7521 27.5743C83.1531 28.6535 82.8761 29.8858 82.9549 31.1215Z" fill="white"/>
<path d="M103.865 25.3242H105.631V32.3752C105.558 33.3057 105.758 34.2374 106.205 35.053C106.422 35.3379 106.706 35.5628 107.031 35.707C107.356 35.8512 107.712 35.9105 108.065 35.879C108.434 35.9159 108.807 35.8607 109.15 35.7183C109.494 35.5758 109.798 35.3505 110.036 35.0618C110.5 34.236 110.709 33.2882 110.636 32.3405V25.3242H112.171V32.071C112.241 33.1406 112.065 34.2122 111.656 35.2008C111.32 35.851 110.805 36.3878 110.174 36.7459C109.542 37.104 108.821 37.2681 108.099 37.2181C107.516 37.2663 106.929 37.1847 106.38 36.979C105.83 36.7732 105.332 36.4482 104.919 36.0268C104.151 34.9665 103.783 33.6616 103.882 32.3493L103.865 25.3242Z" fill="white"/>
<path d="M126.516 36.9401V25.3246H130.236C131.198 25.2712 132.162 25.3949 133.081 25.6897C133.637 25.9304 134.102 26.3442 134.41 26.8708C134.718 27.3975 134.853 28.01 134.796 28.6197C134.814 29.1777 134.697 29.7318 134.453 30.2324C134.209 30.7331 133.847 31.1647 133.398 31.4888C132.255 32.2447 130.904 32.6102 129.542 32.5322H128.256V36.9401H126.516ZM128.23 31.1931H129.327C131.702 31.1931 132.893 30.3239 132.893 28.6546C132.917 28.363 132.869 28.07 132.752 27.8025C132.635 27.535 132.454 27.3017 132.224 27.1244C131.532 26.7631 130.755 26.6035 129.979 26.6635H128.265L128.23 31.1931Z" fill="white"/>
</svg>
